<?xml version="1.0" encoding="utf-8"?>
<svg viewBox="327.877 233.536 43.7493 45.1752" xmlns="http://www.w3.org/2000/svg">
  <path d="M 360.942 261.614 L 360.942 236.418 C 360.942 234.848 359.793 233.536 358.153 233.536 C 357.004 233.536 356.231 234.051 354.989 235.223 L 345.379 244.317 C 345.239 244.458 345.098 244.551 344.934 244.598 L 343.996 244.668 L 360.942 261.614 Z M 368.535 278.184 C 369.262 278.887 370.411 278.887 371.09 278.184 C 371.793 277.458 371.817 276.333 371.09 275.629 L 330.965 235.504 C 330.262 234.801 329.09 234.801 328.387 235.504 C 327.707 236.184 327.707 237.379 328.387 238.059 L 368.535 278.184 Z M 358.2 276.543 C 359.582 276.543 360.543 275.723 360.848 274.34 L 333.168 246.708 C 332.418 247.598 331.996 248.887 331.996 250.528 L 331.996 259.622 C 331.996 263.137 333.778 264.942 337.082 264.942 L 344.043 264.942 C 344.278 264.942 344.489 265.012 344.629 265.153 L 354.989 275.02 C 356.114 276.075 357.051 276.543 358.2 276.543 Z" style="fill: rgb(76, 205, 153);" transform="matrix(1, 0, 0, 1, -2.842170943040401e-14, 0)"/>
</svg>