<?xml version="1.0" encoding="utf-8"?>
<svg viewBox="335.2789 234.6196 28.946 43.008" xmlns="http://www.w3.org/2000/svg">
  <path d="M 23.731 33.504 C 25.324 33.504 26.473 32.332 26.473 30.762 L 26.473 -6.621 C 26.473 -8.191 25.324 -9.504 23.684 -9.504 C 22.535 -9.504 21.762 -8.988 20.52 -7.816 L 10.184 1.957 C 10.02 2.098 9.809 2.168 9.574 2.168 L 2.613 2.168 C -0.691 2.168 -2.473 3.973 -2.473 7.488 L -2.473 16.582 C -2.473 20.098 -0.691 21.902 2.613 21.902 L 9.574 21.902 C 9.809 21.902 10.02 21.973 10.184 22.113 L 20.52 31.981 C 21.645 33.035 22.582 33.504 23.731 33.504 Z" style="fill: rgb(76, 205, 153);" transform="matrix(1, 0, 0, 1, 337.75186660516056, 244.12355405276344)"/>
</svg>